<svg width="423" height="511.963" xmlns="http://www.w3.org/2000/svg" clip-rule="evenodd" fill-rule="evenodd" image-rendering="optimizeQuality" text-rendering="geometricPrecision" shape-rendering="geometricPrecision">

 <g>
  <title>Layer 1</title>
  <path id="svg_1" d="m211.5,0c58.397,0 111.276,23.681 149.547,61.953c38.271,38.271 61.953,91.15 61.953,149.547c0,58.397 -23.682,111.276 -61.953,149.548c-38.271,38.271 -91.15,61.952 -149.547,61.952c-58.391,0 -111.276,-23.681 -149.548,-61.952c-38.271,-38.272 -61.952,-91.157 -61.952,-149.548c0,-58.397 23.681,-111.276 61.952,-149.547c38.272,-38.272 91.151,-61.953 149.548,-61.953z" fill-rule="nonzero" fill="#4D4D4D"/>
  <path id="svg_2" d="m211.501,16.19c53.93,0 102.761,21.866 138.104,57.207c35.341,35.343 57.207,84.173 57.207,138.104c0,53.931 -21.866,102.761 -57.209,138.102c-35.341,35.344 -84.172,57.209 -138.102,57.209c-53.931,0 -102.762,-21.865 -138.105,-57.206c-35.34,-35.344 -57.206,-84.174 -57.206,-138.105c0,-53.931 21.866,-102.761 57.206,-138.104c35.343,-35.341 84.174,-57.207 138.105,-57.207z" fill-rule="nonzero" fill="#fff"/>
  <path id="svg_3" d="m211.501,32.712c98.742,0 178.789,80.045 178.789,178.789c0,98.742 -80.047,178.789 -178.789,178.789c-98.745,0 -178.789,-80.047 -178.789,-178.789c0,-98.744 80.044,-178.789 178.789,-178.789z" fill-rule="nonzero" fill="#E70013"/>
  <path id="svg_4" d="m302.955,211.162c0,-50.504 -40.941,-91.447 -91.445,-91.447c-50.504,0 -91.445,40.943 -91.445,91.447c0,50.504 40.941,91.446 91.445,91.446c50.504,0 91.445,-40.942 91.445,-91.446z" fill-rule="nonzero" fill="#fff"/>
  <path id="svg_5" d="m266.959,170.798c-12.472,-17.103 -32.661,-28.221 -55.449,-28.221c-37.877,0 -68.585,30.707 -68.585,68.585c0,37.877 30.708,68.586 68.585,68.586c22.788,0 42.977,-11.117 55.449,-28.222c-9.773,9.003 -22.824,14.503 -37.16,14.503c-30.302,0 -54.868,-24.565 -54.868,-54.867c0,-30.302 24.566,-54.867 54.868,-54.867c14.336,0 27.387,5.5 37.16,14.503z" fill-rule="nonzero" fill="#E70013"/>
  <path id="svg_6" d="m188.649,211.162l74.441,-24.187l-46.002,63.326l0,-78.278l45.997,63.326l-74.436,-24.187z" fill-rule="nonzero" fill="#E70013"/>
  <path id="svg_7" d="m72.826,325.027l277.338,0c14.711,0 24.948,11.892 26.911,26.912l20.461,133.113c0,14.711 -12.2,26.911 -26.911,26.911l-318.261,0c-14.76,0 -26.905,-12.151 -26.905,-26.911l20.461,-133.113c3.364,-15.666 12.864,-26.906 26.906,-26.912z" fill-rule="nonzero" fill="#4D4D4D"/>
  <path stroke="null" id="svg_8" d="m60.1267,327.92297l290.74361,0c8.01947,0 13.49162,7.22795 14.60963,14.81028l21.16462,143.52847c1.11904,7.59071 -7.01937,14.81028 -14.60859,14.81028l-333.06458,0c-7.59026,0 -15.799,-6.74882 -14.60963,-14.81028l21.15635,-143.52847c1.18834,-8.06147 6.60774,-14.81028 14.60859,-14.81028z" fill="#fff"/>
  <path id="svg_9" d="m128.254,400.337l-9.32,0l0,-38.353l11.41,0l6.212,20.492l6.212,-20.492l11.412,0l0,38.353l-9.261,0l0,-24.373l-4.778,16.068l-7.168,0l-4.719,-15.949l0,24.254zm50.238,0l-1.195,-5.735l-9.2,0l-1.254,5.735l-10.275,0l9.856,-38.353l12.724,0l9.858,38.353l-10.514,0zm-8.783,-13.142l5.975,0l-2.926,-13.8l-3.049,13.8zm22.285,-25.211l17.621,0c5.854,0 8.783,2.47 8.783,7.409l0,23.536c0,4.939 -2.929,7.408 -8.783,7.408l-17.621,0l0,-38.353zm15.948,30.167l0,-21.982c0,-0.876 -0.497,-1.315 -1.492,-1.315l-4.003,0l0,24.612l4.003,0c0.995,0 1.492,-0.437 1.492,-1.315zm25.509,0.717l13.083,0l0,7.469l-23.536,0l0,-38.353l23,0l0,7.468l-12.547,0l0,7.826l10.813,0l0,7.466l-10.813,0l0,8.124zm28.317,-30.884l10.454,0l0,38.353l-10.454,0l0,-38.353zm32.736,0l9.558,0l0,38.353l-8.96,0l-8.542,-20.132l0,20.132l-9.558,0l0,-38.353l8.961,0l8.541,20.492l0,-20.492z" fill-rule="nonzero" fill="#333"/>
  <text transform="matrix(3.77094 0 0 3.64654 -412.282 -1132.36)" stroke="null" xml:space="preserve" text-anchor="start" font-family="Noto Sans JP" font-size="24" stroke-width="0" id="svg_15" y="440.02136" x="119.49964" fill="#000000">DABKY</text>
 </g>
</svg>
