<svg width="512" height="439.26" xmlns="http://www.w3.org/2000/svg" clip-rule="evenodd" fill-rule="evenodd" image-rendering="optimizeQuality" text-rendering="geometricPrecision" shape-rendering="geometricPrecision">

 <g>
  <title>Layer 1</title>
  <path id="svg_1" d="m255.78,116.65l24.09,56.37l61.06,5.46c2.73,0.21 4.7,2.59 4.49,5.32c-0.15,1.33 -0.7,2.46 -1.69,3.3l-46.21,40.33l13.65,59.8c0.63,2.66 -1.05,5.26 -3.71,5.88c-1.33,0.29 -87.73,-123 -3.78,-0.69l-52.52,-31.37l-52.66,31.51c-2.31,1.39 -5.32,0.63 -6.73,-1.68a4.82,4.82 0 0 1 -0.55,-3.65l13.65,-59.8l-46.22,-40.33c-2.02,-1.76 -2.24,-4.91 -0.48,-6.94c0.98,-1.04 192.23,3.46 3.5,-1.61l60.92,-5.46l24.09,-56.44c1.05,-2.52 50.92,163.35 6.44,-2.59c1.26,0.49 2.17,1.47 2.66,2.59zm6.5,-112.51l0.23,0.01c70.14,2.12 133.01,27.03 177.98,65.58c45.71,39.19 73.14,92.52 71.43,150.65l0,0.39c-1.85,58.12 -32.45,109.72 -80.46,146.14c-47.29,35.89 -111.62,57.06 -181.75,55c-19.64,-0.57 -38.62,-2.91 -56.68,-6.8c-16.95,-3.66 -33.25,-8.7 -48.67,-14.94l-109.6,43.09l36.62,-87.1c-21.99,-18.88 -39.75,-41.03 -52.03,-65.37c-13.25,-26.27 -20.18,-55.13 -19.27,-85.27c1.75,-58.21 32.38,-109.9 80.45,-146.38c47.29,-35.89 111.63,-57.06 181.75,-55zm-0.41,25.15l-0.23,-0.01c-64.31,-1.89 -123.01,17.32 -165.93,49.88c-42.13,31.98 -68.98,76.87 -70.49,127.06c-0.77,25.79 5.2,50.58 16.62,73.23c12.01,23.8 30.03,45.27 52.54,63.1l7.51,5.95l-20.81,49.46l63.56,-24.99l4.76,2.02c15.31,6.54 31.69,11.76 48.85,15.46c16.81,3.62 34.29,5.79 52.16,6.31c64.26,1.89 122.96,-17.31 165.87,-49.87c42.15,-31.98 68.98,-76.88 70.49,-127.06l0.01,-0.39c1.39,-50.03 -22.64,-96.27 -62.66,-130.58c-40.84,-35.01 -98.15,-57.63 -162.25,-59.57z" fill-rule="nonzero"/>
  <g stroke="null">
   <g stroke="null" fill-rule="nonzero">
    <path stroke="null" d="m267.99792,71.63292c39.75958,0 75.76223,15.78725 101.8188,41.30053c26.05714,25.51383 42.18057,60.76581 42.18057,99.69638c0,38.93057 -16.12343,74.18255 -42.18057,99.69638c-26.05657,25.51328 -62.05923,41.30053 -101.8188,41.30053c-39.75564,0 -75.76223,-15.78725 -101.81937,-41.30053c-26.05657,-25.51383 -42.18,-60.77022 -42.18,-99.69638c0,-38.93057 16.12343,-74.18255 42.18,-99.69638c26.05714,-25.51328 62.05979,-41.30053 101.81937,-41.30053z" fill="#4D4D4D"/>
    <path stroke="null" d="m267.99848,82.42634c36.71871,0 69.96457,14.57666 94.02821,38.13636c24.06139,23.5619 38.94845,56.11456 38.94845,92.06767s-14.88706,68.50632 -38.95014,92.06602c-24.06196,23.5619 -57.30781,38.13856 -94.02653,38.13856c-36.71871,0 -69.96457,-14.57666 -94.02821,-38.13691c-24.06196,-23.56135 -38.94902,-56.11456 -38.94902,-92.06767s14.88706,-68.50577 38.94902,-92.06767c24.06364,-23.5597 57.3095,-38.13636 94.02821,-38.13636z" fill="#fff"/>
    <path stroke="null" d="m267.99848,93.44007c67.22802,0 121.72841,53.36237 121.72841,119.1903c0,65.82683 -54.50039,119.1903 -121.72841,119.1903c-67.23027,0 -121.72841,-53.36347 -121.72841,-119.1903c0,-65.82793 54.49814,-119.1903 121.72841,-119.1903z" fill="#E70013"/>
    <path stroke="null" d="m330.26527,212.40456c0,-33.66907 -27.87457,-60.96299 -62.2606,-60.96299c-34.38547,0 -62.26004,27.29392 -62.26004,60.96299c0,33.66852 27.87457,60.96299 62.26004,60.96299c34.38604,0 62.2606,-27.29447 62.2606,-60.96299z" fill="#fff"/>
    <path stroke="null" d="m305.75725,185.49618c-8.49146,-11.40257 -22.23722,-18.81427 -37.75258,-18.81427c-25.78826,0 -46.6963,20.47099 -46.6963,45.72265c0,25.25056 20.90803,45.72265 46.6963,45.72265c15.51537,0 29.26112,-7.41115 37.75258,-18.81427c-6.65435,6.00228 -15.53956,9.66875 -25.30058,9.66875c-20.63072,0 -37.35715,-16.37602 -37.35715,-36.57713s16.72643,-36.57713 37.35715,-36.57713c9.76102,0 18.64623,3.66702 25.30058,9.66875z" fill="#E70013"/>
    <path stroke="null" d="m252.4398,212.40456l50.68328,-16.12487l-31.32043,42.21701l0,-52.18428l31.31705,42.21701l-50.6799,-16.12487z" fill="#E70013"/>
   </g>
  </g>
 </g>
</svg>
